<?xml version="1.0" standalone="no"?>
<!DOCTYPE svg PUBLIC "-//W3C//DTD SVG 20010904//EN"
 "http://www.w3.org/TR/2001/REC-SVG-20010904/DTD/svg10.dtd">
<svg version="1.0" xmlns="http://www.w3.org/2000/svg"
 width="512.000000pt" height="512.000000pt" viewBox="0 0 512.000000 512.000000"
 preserveAspectRatio="xMidYMid meet">
<metadata>
Created by potrace 1.11, written by Peter Selinger 2001-2013
</metadata>
<g transform="translate(0.000000,512.000000) scale(0.100000,-0.100000)"
fill="#000000" stroke="none">
<path d="M2378 5115 c-2 -2 -39 -6 -82 -10 -44 -3 -82 -8 -85 -10 -3 -1 -27
-6 -53 -9 -45 -6 -103 -17 -158 -30 -14 -4 -37 -8 -52 -11 -45 -8 -261 -75
-292 -91 -16 -8 -33 -14 -37 -14 -4 0 -29 -10 -56 -22 -26 -12 -50 -22 -53
-23 -39 -11 -262 -132 -271 -147 -3 -5 -10 -10 -15 -10 -14 -1 -196 -124 -244
-164 -168 -143 -270 -240 -347 -330 -71 -83 -79 -92 -96 -116 -90 -121 -180
-257 -183 -277 -2 -8 -7 -17 -12 -20 -8 -5 -74 -126 -77 -141 0 -3 -10 -23
-22 -45 -26 -51 -92 -210 -96 -233 -2 -9 -9 -28 -17 -42 -7 -14 -12 -25 -10
-25 1 0 -4 -25 -13 -55 -25 -85 -47 -172 -52 -205 -3 -16 -8 -43 -12 -60 -10
-47 -16 -96 -30 -215 -15 -136 -7 -545 12 -603 2 -7 6 -30 9 -52 12 -95 69
-336 86 -367 6 -10 10 -23 10 -29 0 -6 20 -61 44 -122 133 -339 324 -632 578
-888 64 -65 242 -219 252 -219 3 0 20 -14 38 -30 18 -17 38 -30 45 -30 7 0 13
-4 13 -8 0 -5 16 -17 35 -28 19 -10 35 -22 35 -26 0 -3 10 -10 22 -14 12 -3
45 -22 74 -40 100 -64 425 -214 464 -214 5 0 21 -5 37 -12 34 -14 28 -12 143
-43 52 -14 111 -27 130 -30 19 -3 42 -7 50 -9 59 -12 140 -25 215 -33 82 -10
425 -10 505 0 115 13 277 41 365 64 33 8 69 17 79 19 25 5 176 54 201 65 41
19 64 17 90 -5 33 -28 102 -66 120 -66 8 0 17 -5 21 -12 5 -7 3 -8 -6 -3 -9 5
-11 4 -6 -4 4 -6 11 -9 16 -6 15 10 62 -14 54 -27 -5 -9 -2 -9 9 1 11 9 17 10
17 2 0 -6 3 -10 8 -10 4 1 9 0 12 -1 3 -1 14 -3 25 -5 11 -2 38 -8 60 -14 22
-5 135 -10 252 -10 176 1 222 4 270 19 94 29 222 86 234 104 4 5 14 6 22 3 11
-4 14 -1 10 9 -3 7 0 14 7 14 13 0 79 46 98 69 6 8 12 11 12 6 0 -5 7 1 16 13
8 12 20 19 26 16 6 -4 8 -2 4 4 -3 6 6 20 20 31 15 12 23 21 19 21 -3 0 10 16
30 35 20 20 33 40 29 47 -4 7 -3 8 4 4 7 -4 12 -2 12 4 0 6 5 8 12 4 6 -4 8
-3 4 4 -3 6 0 17 8 24 7 8 17 24 20 36 4 12 11 20 15 18 4 -3 8 5 8 16 1 11 9
28 17 37 9 10 16 23 16 29 0 7 5 12 11 12 5 0 7 4 4 10 -3 5 0 20 7 32 6 13
13 28 15 33 1 6 11 40 22 77 27 93 30 425 5 526 -19 77 -89 245 -104 250 -5 2
-10 9 -10 15 0 6 -12 28 -26 49 l-26 37 40 118 c36 103 64 201 78 268 2 11 7
31 9 45 15 68 36 203 42 265 15 147 8 460 -12 610 -4 27 -6 44 -19 120 -8 44
-29 133 -43 184 -8 29 -16 59 -18 65 -1 6 -5 18 -8 26 -3 8 -18 51 -33 95 -54
158 -180 422 -240 502 -13 17 -24 35 -24 39 0 5 -71 109 -102 149 -291 374
-621 634 -1033 815 -81 35 -87 38 -155 60 -36 12 -72 25 -80 28 -15 5 -30 10
-52 15 -7 2 -38 11 -68 19 -30 9 -68 19 -85 22 -16 3 -64 12 -105 21 -41 8
-102 18 -135 21 -33 4 -64 9 -69 12 -10 5 -442 12 -448 7z"/>
</g>
</svg>
