<?xml version="1.0" standalone="no"?>
<!DOCTYPE svg PUBLIC "-//W3C//DTD SVG 20010904//EN"
 "http://www.w3.org/TR/2001/REC-SVG-20010904/DTD/svg10.dtd">
<svg version="1.0" xmlns="http://www.w3.org/2000/svg"
 width="256.000000pt" height="256.000000pt" viewBox="0 0 256.000000 256.000000"
 preserveAspectRatio="xMidYMid meet">
<metadata>
Created by potrace 1.11, written by Peter Selinger 2001-2013
</metadata>
<g transform="translate(0.000000,256.000000) scale(0.100000,-0.100000)"
fill="#000000" stroke="none">
<path d="M1297 2404 c-1 -1 -45 -4 -98 -8 -53 -3 -102 -8 -110 -10 -8 -3 -25
-8 -39 -10 -201 -39 -407 -152 -566 -311 -260 -259 -369 -608 -308 -990 8 -53
56 -209 71 -232 8 -12 15 -26 15 -30 1 -16 11 -38 30 -65 11 -16 16 -28 11
-28 -4 0 -3 -4 2 -8 21 -15 75 -104 69 -113 -3 -5 0 -8 6 -7 7 2 17 -6 23 -16
7 -10 26 -32 42 -49 17 -16 28 -35 27 -41 -2 -6 -1 -8 3 -4 8 8 81 -63 77 -75
-1 -5 2 -5 9 -2 6 4 19 -1 29 -11 30 -30 49 -44 58 -44 4 0 17 -8 28 -17 11
-10 41 -29 67 -42 25 -13 44 -27 41 -32 -3 -5 1 -6 9 -3 21 8 69 -14 61 -28
-4 -7 -3 -8 4 -4 16 10 93 -15 85 -27 -3 -6 -1 -7 6 -3 7 4 35 2 64 -5 68 -17
64 -16 88 -18 11 0 18 -5 15 -9 -3 -5 1 -9 9 -9 8 0 12 4 9 9 -3 5 7 6 23 2
15 -3 43 -6 61 -6 18 1 32 -4 32 -11 0 -8 3 -8 8 -2 4 6 32 11 62 12 30 1 64
4 75 6 11 3 26 -1 34 -7 11 -8 13 -8 7 1 -7 13 -2 14 86 17 14 0 25 3 23 7 -3
4 31 15 105 34 42 11 60 19 60 26 0 5 9 9 19 9 11 0 23 5 26 10 4 6 11 8 16 5
5 -4 9 -2 9 3 0 5 15 16 33 23 34 14 118 68 128 83 4 5 12 5 19 1 8 -5 11 -4
7 2 -9 14 19 37 34 27 7 -4 9 -3 6 3 -9 14 19 37 34 27 8 -4 9 -3 5 5 -8 12
91 118 106 113 5 -1 7 2 4 7 -4 5 17 43 46 83 29 40 62 92 72 115 10 24 22 40
26 38 4 -3 7 1 7 8 -1 21 15 77 23 77 3 0 7 6 8 13 0 6 10 44 22 82 120 405
-17 865 -342 1149 -106 94 -199 149 -363 216 -28 11 -95 29 -127 34 -15 3 -31
7 -35 9 -11 6 -191 26 -196 21z"/>
<path d="M1790 266 c0 -2 7 -7 16 -10 8 -3 12 -2 9 4 -6 10 -25 14 -25 6z"/>
<path d="M1320 140 c-9 -6 -10 -10 -3 -10 6 0 15 5 18 10 8 12 4 12 -15 0z"/>
</g>
</svg>
